<svg width="598" height="517" viewBox="0 0 598 517" fill="none" xmlns="http://www.w3.org/2000/svg">
<g clip-path="url(#clip0_142_2730)">
<path d="M197.946 416.219V426.077H98.5566V416.219H197.946Z" fill="#49868F"/>
<path d="M300.152 431.919V441.778H200.762V431.919H300.152Z" fill="#49868F"/>
<path d="M76.5954 413.663C73.7964 413.663 71.5273 411.701 71.5273 409.281V145.657C71.5273 143.237 73.7964 141.276 76.5954 141.276H233.704C236.503 141.276 238.772 143.237 238.772 145.657V409.281C238.772 411.701 236.503 413.663 233.704 413.663H76.5954Z" fill="#5BA7B3"/>
<path d="M401.935 445.43V455.288H302.545V445.43H401.935Z" fill="#49868F"/>
<path d="M233.704 145.657V409.281H76.5952V145.657H233.704Z" fill="#49868F"/>
<path d="M140.685 265.42H100.352C97.8363 263.245 96.4266 262.026 93.9111 259.851V163.64C96.4266 161.465 97.8363 160.246 100.352 158.071H140.685C143.2 160.246 144.61 161.465 147.125 163.64V259.851C144.61 262.026 143.2 263.245 140.685 265.42Z" fill="#51949E"/>
<path d="M103.5 258.848L101.513 257.129V166.362L103.5 164.643H137.536L139.523 166.362V257.129L137.536 258.848H103.5Z" fill="#59A3AD"/>
<path d="M209.103 265.42H168.77C166.255 263.245 164.845 262.026 162.33 259.851V163.64C164.845 161.465 166.255 160.246 168.77 158.071H209.103C211.619 160.246 213.029 161.465 215.544 163.64V259.851C213.029 262.026 211.619 263.245 209.103 265.42Z" fill="#51949E"/>
<path d="M171.919 258.848L169.931 257.129V166.362L171.919 164.643H205.954L207.942 166.362V257.129L205.954 258.848H171.919Z" fill="#59A3AD"/>
<path d="M140.685 391.025H100.352C97.8363 388.85 96.4266 387.631 93.9111 385.457V289.245C96.4266 287.07 97.8363 285.851 100.352 283.676H140.685C143.2 285.851 144.61 287.07 147.125 289.245V385.457C144.61 387.631 143.2 388.85 140.685 391.025Z" fill="#51949E"/>
<path d="M103.5 384.453L101.513 382.734V291.967L103.5 290.249H137.536L139.523 291.967V382.734L137.536 384.453H103.5Z" fill="#59A3AD"/>
<path d="M209.103 391.025H168.77C166.255 388.85 164.845 387.631 162.33 385.457V289.245C164.845 287.07 166.255 285.851 168.77 283.676H209.103C211.619 285.851 213.029 287.07 215.544 289.245V385.457C213.029 387.631 211.619 388.85 209.103 391.025Z" fill="#51949E"/>
<path d="M171.919 384.453L169.931 382.734V291.967L171.919 290.249H205.954L207.942 291.967V382.734L205.954 384.453H171.919Z" fill="#59A3AD"/>
<g style="mix-blend-mode:multiply">
<g style="mix-blend-mode:multiply">
<path d="M229.375 286.688C229.375 293.696 226.327 299.377 222.565 299.377C218.804 299.377 215.755 293.696 215.755 286.688C215.755 279.681 218.804 274 222.565 274C226.327 274 229.375 279.681 229.375 286.688Z" fill="#D6D6D6"/>
</g>
</g>
<path d="M222.512 269.436C226.125 269.436 229.059 271.972 229.059 275.096C229.059 278.219 226.125 280.755 222.512 280.755C218.9 280.755 215.966 278.219 215.966 275.096C215.966 271.972 218.9 269.436 222.512 269.436Z" fill="#63B5C2"/>
<g style="mix-blend-mode:screen">
<g style="mix-blend-mode:screen">
<path d="M225.409 270.026C226.281 270.987 226.807 272.197 226.807 273.514C226.807 276.639 223.875 279.173 220.26 279.173C219.219 279.173 218.238 278.957 217.364 278.583C218.562 279.903 220.421 280.755 222.513 280.755C226.128 280.755 229.059 278.221 229.059 275.096C229.059 272.87 227.569 270.95 225.409 270.026Z" fill="#444444"/>
</g>
</g>
<path d="M225.784 274.628C225.784 276.342 224.177 277.731 222.195 277.731C220.212 277.731 218.605 276.342 218.605 274.628C218.605 272.913 220.212 271.524 222.195 271.524C224.177 271.524 225.784 272.913 225.784 274.628Z" fill="#569DA8"/>
<path d="M452.193 331.143H297.337C292.516 331.143 288.608 327.765 288.608 323.597V217.466C288.608 213.298 292.516 209.92 297.337 209.92H452.193C457.014 209.92 460.922 213.298 460.922 217.466V323.597C460.922 327.765 457.014 331.143 452.193 331.143Z" fill="#5A7D96"/>
<path d="M377.722 211.322V328.164H371.809V211.322H377.722Z" fill="white"/>
<g style="mix-blend-mode:screen">
<g style="mix-blend-mode:screen">
<path d="M371.646 214.791C356.864 254.225 304.494 289.095 304.494 289.095L308.295 328.164L291.613 328.346L293.091 212.418L371.646 214.791Z" fill="#EA580C"/>
</g>
</g>
<g style="mix-blend-mode:screen">
<g style="mix-blend-mode:screen">
<path d="M302.902 284.958C302.845 284.958 302.793 284.952 302.749 284.939C302.606 284.897 302.162 284.71 302.403 284.055C302.95 282.57 304.247 279.673 305.749 276.32C308.251 270.736 311.365 263.787 311.892 261.279C311.934 261.08 312.157 260.946 312.384 260.986C312.613 261.022 312.765 261.212 312.724 261.41C312.182 263.986 309.183 270.679 306.537 276.584C305.07 279.86 303.798 282.698 303.241 284.188C306.679 282.991 332.616 261.938 342.108 239.494C342.189 239.305 342.432 239.208 342.65 239.277C342.869 239.346 342.982 239.556 342.902 239.745C333.262 262.535 306.316 284.958 302.902 284.958Z" fill="#263638"/>
</g>
</g>
<g style="mix-blend-mode:screen">
<g style="mix-blend-mode:screen">
<path d="M297.316 283.8C297.289 283.8 297.263 283.798 297.237 283.794C297.007 283.756 296.856 283.565 296.9 283.367C296.967 283.058 303.65 252.416 303.65 241.08C303.65 240.878 303.838 240.715 304.072 240.715C304.306 240.715 304.494 240.878 304.494 241.08C304.494 252.484 297.797 283.194 297.729 283.503C297.691 283.678 297.514 283.8 297.316 283.8Z" fill="#263638"/>
</g>
</g>
<path d="M305.128 289.886C305.099 289.886 305.069 289.884 305.038 289.881C304.504 289.842 297.648 289.863 293.449 289.886C293.446 289.886 293.445 289.886 293.444 289.886C292.979 289.886 292.602 289.562 292.599 289.16C292.595 288.757 292.971 288.428 293.438 288.425C295.291 288.415 304.572 288.367 305.221 288.43C305.684 288.475 306.018 288.835 305.967 289.237C305.919 289.61 305.553 289.886 305.128 289.886Z" fill="white"/>
<g style="mix-blend-mode:screen">
<g style="mix-blend-mode:screen">
<path d="M376.926 214.791C391.707 254.225 444.077 289.095 444.077 289.095L440.276 328.164L456.958 328.346L455.48 212.418L376.926 214.791Z" fill="#F97316"/>
</g>
</g>
<g style="mix-blend-mode:screen">
<g style="mix-blend-mode:screen">
<path d="M445.67 284.958C445.727 284.958 445.778 284.952 445.822 284.939C445.965 284.897 446.409 284.71 446.168 284.055C445.621 282.57 444.324 279.673 442.822 276.32C440.32 270.736 437.206 263.787 436.679 261.279C436.637 261.08 436.414 260.946 436.187 260.986C435.958 261.022 435.806 261.212 435.847 261.41C436.389 263.986 439.388 270.679 442.034 276.584C443.501 279.86 444.773 282.698 445.33 284.188C441.892 282.991 415.956 261.938 406.463 239.494C406.383 239.305 406.14 239.208 405.921 239.277C405.702 239.346 405.589 239.556 405.669 239.745C415.309 262.535 442.256 284.958 445.67 284.958Z" fill="#263638"/>
</g>
</g>
<g style="mix-blend-mode:screen">
<g style="mix-blend-mode:screen">
<path d="M451.255 283.8C451.282 283.8 451.308 283.798 451.335 283.794C451.564 283.756 451.715 283.565 451.671 283.367C451.604 283.058 444.922 252.416 444.922 241.08C444.922 240.878 444.733 240.715 444.499 240.715C444.265 240.715 444.077 240.878 444.077 241.08C444.077 252.484 450.774 283.194 450.842 283.503C450.879 283.678 451.057 283.8 451.255 283.8Z" fill="#263638"/>
</g>
</g>
<path d="M443.443 289.886C443.473 289.886 443.502 289.884 443.533 289.881C444.067 289.842 450.923 289.863 455.122 289.886C455.125 289.886 455.126 289.886 455.127 289.886C455.592 289.886 455.969 289.562 455.972 289.16C455.976 288.757 455.6 288.428 455.134 288.425C453.28 288.415 443.999 288.367 443.35 288.43C442.887 288.475 442.552 288.835 442.603 289.237C442.652 289.61 443.018 289.886 443.443 289.886Z" fill="white"/>
<path d="M350.318 325.79H336.803C331.905 325.79 327.934 322.357 327.934 318.123V296.032H359.187V318.123C359.187 322.357 355.216 325.79 350.318 325.79Z" fill="#DDEEED"/>
<path d="M358.765 297.128H328.356C326.373 297.128 324.767 295.738 324.767 294.024C324.767 292.31 326.373 290.921 328.356 290.921H358.765C360.747 290.921 362.354 292.31 362.354 294.024C362.354 295.738 360.747 297.128 358.765 297.128Z" fill="white"/>
<path d="M203.636 429.051C203.636 451.098 224.125 468.972 249.4 468.972C274.675 468.972 295.164 451.098 295.164 429.051C295.164 407.003 274.675 389.13 249.4 389.13C224.125 389.13 203.636 407.003 203.636 429.051ZM209.224 429.051C209.224 409.695 227.212 394.005 249.4 394.005C271.588 394.005 289.576 409.695 289.576 429.051C289.576 448.406 271.588 464.097 249.4 464.097C227.212 464.097 209.224 448.406 209.224 429.051Z" fill="#100D2B"/>
<path d="M240.115 429.051C240.115 424.578 244.272 420.951 249.4 420.951C254.528 420.951 258.684 424.578 258.684 429.051C258.684 433.524 254.528 437.15 249.4 437.15C244.272 437.15 240.115 433.524 240.115 429.051Z" fill="#3D5A78"/>
<path d="M252.515 429.903C253.032 429.903 253.543 429.705 253.885 429.325L266.13 415.73C266.251 415.596 266.345 415.444 266.407 415.282L287.31 360.903C287.465 360.501 287.415 360.063 287.175 359.694C286.935 359.326 286.526 359.062 286.049 358.968C281.957 358.164 278.765 355.69 278.624 353.215C278.481 350.719 281.608 348.361 287.203 346.747C288.112 346.485 288.603 345.636 288.299 344.85C287.996 344.065 287.014 343.64 286.105 343.903C276.273 346.739 275.026 351.047 275.159 353.362C275.353 356.769 278.737 359.982 283.451 361.433L263.21 414.091L251.148 427.482C250.56 428.136 250.695 429.078 251.451 429.587C251.767 429.8 252.143 429.903 252.515 429.903Z" fill="#FFBF4A"/>
<path d="M331.71 441.519C332.433 441.519 333.107 441.125 333.352 440.501L361.306 369.291C361.613 368.506 361.128 367.655 360.221 367.389C359.313 367.123 358.329 367.543 358.021 368.327L330.068 439.537C329.76 440.322 330.246 441.173 331.153 441.439C331.337 441.493 331.526 441.519 331.71 441.519Z" fill="#FFBF4A"/>
<path d="M348.745 429.051C348.745 451.098 369.234 468.972 394.509 468.972C419.784 468.972 440.273 451.098 440.273 429.051C440.273 407.003 419.784 389.13 394.509 389.13C369.234 389.13 348.745 407.003 348.745 429.051ZM394.509 394.005C416.682 394.005 434.684 409.709 434.684 429.051C434.684 448.392 416.682 464.097 394.509 464.097C372.336 464.097 354.334 448.392 354.334 429.051C354.334 409.709 372.336 394.005 394.509 394.005Z" fill="#100D2B"/>
<path d="M385.225 429.051C385.225 424.578 389.381 420.951 394.509 420.951C399.637 420.951 403.794 424.578 403.794 429.051C403.794 433.524 399.637 437.15 394.509 437.15C389.381 437.15 385.225 433.524 385.225 429.051Z" fill="#3D5A78"/>
<path d="M332.666 434.219C332.711 434.219 332.757 434.218 332.803 434.214L392.668 430.114C393.329 430.069 393.902 429.702 394.145 429.168C394.387 428.635 394.257 428.028 393.809 427.606L352.777 388.942C352.57 388.747 352.306 388.603 352.012 388.524L281.973 369.787C281.06 369.54 280.087 369.985 279.803 370.777C279.52 371.567 280.032 372.408 280.947 372.652L350.539 391.269L388.849 427.368L333.39 431.166L279.294 378.425C278.658 377.805 277.562 377.748 276.846 378.298C276.129 378.847 276.064 379.795 276.7 380.414L331.369 433.714C331.699 434.036 332.172 434.219 332.666 434.219Z" fill="#FFBF4A"/>
<path d="M334.398 423.225C340.951 423.225 346.272 427.866 346.272 433.583C346.272 439.299 340.951 443.94 334.398 443.94C327.845 443.94 322.524 439.299 322.524 433.583C322.524 427.866 327.845 423.225 334.398 423.225Z" fill="#3D5A78"/>
<path d="M331.334 433.583C331.334 435.059 332.705 436.256 334.398 436.256C336.091 436.256 337.462 435.059 337.462 433.583C337.462 432.106 336.091 430.909 334.398 430.909C332.705 430.909 331.334 432.106 331.334 433.583Z" fill="#293D52"/>
<path d="M316.619 433.919V437.73H301.877V433.919H316.619Z" fill="#293D52"/>
<path d="M313.726 437.356C313.799 437.356 313.873 437.352 313.948 437.344L334.617 435.07C335.567 434.965 336.239 434.215 336.118 433.393C335.997 432.572 335.133 431.992 334.179 432.095L313.51 434.369C312.56 434.473 311.888 435.224 312.009 436.045C312.12 436.802 312.866 437.356 313.726 437.356Z" fill="#5278A1"/>
<path d="M284.181 345.972C284.181 347.581 285.676 348.885 287.521 348.885C289.365 348.885 290.86 347.581 290.86 345.972C290.86 344.363 289.365 343.059 287.521 343.059C285.676 343.059 284.181 344.363 284.181 345.972Z" fill="#FFBF4A"/>
<path d="M352.817 370.399H378.868C380.658 370.399 382.107 369.146 382.107 367.599C382.107 366.052 380.658 364.799 378.868 364.799H352.817C351.028 364.799 349.578 366.052 349.578 367.599C349.578 369.146 351.028 370.399 352.817 370.399Z" fill="#3D5A78"/>
<g style="mix-blend-mode:screen">
<g style="mix-blend-mode:screen">
<path d="M90.1453 486.181C61.9895 470.115 38.3386 494.944 35.523 480.339C39.6359 454.561 20.2812 433.251 -0.687012 435.291C3.17562 442.689 25.9528 447.205 16.6063 468.649C5.62576 493.843 22.5187 506.987 61.7962 506.987C80.229 506.987 82.569 513.662 79.8625 520.747H100.281C100.281 520.747 118.301 502.247 90.1453 486.181Z" fill="#F97316"/>
</g>
</g>
<path d="M450.366 519.789H594.594C603.807 519.789 611.276 513.333 611.276 505.367V416.457C611.276 405.971 601.444 397.471 589.315 397.471C577.186 397.471 567.353 389.7 567.353 379.214L566.152 314.702C526.875 310.321 515.828 335.764 504.847 379.945C493.866 424.126 358.719 428.142 450.366 519.789Z" fill="#F97316"/>
<path d="M580.298 399.712C580.314 399.177 579.824 398.731 579.204 398.718C578.527 398.703 578.068 399.128 578.053 399.664C577.328 424.726 560.383 428.422 551.956 428.702C551.91 424.17 551.822 420.064 551.715 416.486C551.735 416.414 551.766 416.345 551.766 416.268C551.766 416.168 551.732 416.077 551.7 415.986C551.418 406.778 551.028 401.187 551.015 401.003C550.977 400.468 550.452 400.049 549.824 400.095C549.206 400.128 548.736 400.589 548.774 401.124C548.787 401.302 549.153 406.562 549.432 415.261C540.445 414.755 537.758 408.286 537.172 387.008C537.156 386.472 536.64 386.022 536.024 386.061C535.403 386.074 534.913 386.518 534.927 387.054C535.485 407.281 537.762 416.651 549.491 417.211C549.596 420.864 549.682 425.037 549.721 429.638C549.719 429.658 549.708 429.674 549.708 429.694C549.708 429.714 549.72 429.731 549.722 429.752C549.832 443.013 549.555 459.773 548.231 477.598C526.077 476.114 516.127 462.106 513.97 429.476C513.935 428.941 513.357 428.528 512.786 428.562C512.167 428.593 511.693 429.052 511.729 429.587C513.936 462.993 524.831 477.981 548.084 479.534C547.079 492.376 545.523 505.72 543.172 518.668C543.077 519.198 543.495 519.695 544.107 519.777C544.166 519.786 544.224 519.789 544.283 519.789C544.826 519.789 545.304 519.448 545.391 518.969C551.084 487.611 552.133 453.952 551.972 430.644C561.071 430.366 579.523 426.481 580.298 399.712Z" fill="#7C9DBF"/>
<g style="mix-blend-mode:screen">
<g style="mix-blend-mode:screen">
<path d="M543.135 439.577C504.804 398.472 551.705 384.059 566.796 349.266L566.152 314.702C526.875 310.321 515.828 335.764 504.847 379.945C493.867 424.126 358.719 428.142 450.366 519.789H562.878C583.608 502.066 572.578 471.151 543.135 439.577Z" fill="#263638"/>
</g>
</g>
<path d="M341.65 290.672C328.181 286.824 325.823 275.598 325.676 272.175C337.597 272.511 341.121 280.151 341.65 290.672Z" fill="#334B63"/>
<path d="M343.028 284.205C352.472 278.454 351.24 269.225 350.419 266.527C341.222 269.225 340.564 275.899 343.028 284.205Z" fill="#334B63"/>
<path d="M339.394 272.095C332.256 269.758 331.287 263.675 331.3 261.832C337.7 262.25 339.39 266.428 339.394 272.095Z" fill="#334B63"/>
<path d="M254.821 200.336V188.469C253.13 188.469 251.759 187.283 251.759 185.821H245.635C245.635 187.283 244.264 188.469 242.573 188.469V200.336C244.264 200.336 245.635 201.521 245.635 202.983H251.759C251.759 201.521 253.13 200.336 254.821 200.336Z" fill="#49868F"/>
<path d="M248.627 191.42C250.608 191.42 252.217 192.811 252.217 194.524C252.217 196.237 250.608 197.627 248.627 197.627C246.646 197.627 245.037 196.237 245.037 194.524C245.037 192.811 246.646 191.42 248.627 191.42Z" fill="#63B5C2"/>
<path d="M225.978 212.924C226.648 210.366 222.891 198.704 223.97 197.801C225.049 196.899 226.617 193.516 227.192 193.359C227.767 193.202 238.424 189.597 238.424 189.597C239.552 190.506 238.432 192.376 237.073 193.268C235.714 194.161 234.288 194.898 235.755 195.106C237.222 195.313 238.944 196.321 239.478 197.131C240.012 197.941 240.778 200.774 240.55 203.008C240.323 205.242 237.97 209.361 236.234 208.531C235.7 211.545 233.99 215.662 233.99 215.662C233.99 215.662 227.736 216.21 225.978 212.924Z" fill="#FF906E"/>
<path d="M223.829 216.41C224.004 213.683 224.991 212.832 224.991 212.832C229.078 212.882 232.374 214.022 233.396 215.316C234.318 218.443 233.965 219.618 233.965 219.618L223.829 216.41Z" fill="#443D8F"/>
<path d="M228.851 196.301C228.825 196.325 228.787 196.339 228.745 196.335C228.667 196.329 228.602 196.265 228.601 196.194C228.596 195.894 228.365 195.563 228.04 195.39C227.876 195.302 227.55 195.187 227.214 195.391C227.152 195.428 227.063 195.41 227.015 195.349C226.967 195.288 226.977 195.211 227.04 195.171C227.373 194.968 227.783 194.967 228.162 195.169C228.582 195.393 228.879 195.824 228.885 196.218C228.886 196.251 228.873 196.28 228.851 196.301Z" fill="#DB7C5F"/>
<path d="M231.281 197.616C231.256 197.641 231.218 197.655 231.176 197.651C231.097 197.645 231.033 197.581 231.032 197.51C231.027 197.21 230.796 196.879 230.47 196.705C230.306 196.618 229.981 196.502 229.645 196.707C229.583 196.744 229.494 196.725 229.446 196.665C229.398 196.604 229.408 196.527 229.47 196.486C229.804 196.284 230.214 196.283 230.593 196.485C231.012 196.708 231.31 197.14 231.316 197.534C231.317 197.567 231.303 197.596 231.281 197.616Z" fill="#DB7C5F"/>
<path d="M233.77 199.164C233.744 199.188 233.706 199.202 233.664 199.198C233.585 199.192 233.521 199.128 233.52 199.057C233.515 198.757 233.284 198.426 232.958 198.253C232.794 198.165 232.469 198.05 232.133 198.254C232.071 198.291 231.982 198.273 231.934 198.212C231.886 198.151 231.896 198.074 231.959 198.034C232.292 197.831 232.702 197.83 233.081 198.032C233.501 198.256 233.798 198.687 233.804 199.081C233.805 199.114 233.792 199.143 233.77 199.164Z" fill="#DB7C5F"/>
<path d="M235.885 201.073C235.86 201.097 235.822 201.111 235.78 201.108C235.701 201.101 235.637 201.038 235.636 200.966C235.631 200.666 235.4 200.335 235.074 200.162C234.91 200.075 234.585 199.959 234.249 200.163C234.187 200.2 234.098 200.182 234.05 200.121C234.002 200.061 234.011 199.983 234.074 199.943C234.408 199.74 234.818 199.739 235.197 199.942C235.616 200.165 235.914 200.596 235.92 200.99C235.921 201.023 235.907 201.052 235.885 201.073Z" fill="#DB7C5F"/>
<path d="M236.424 207.804C236.378 207.816 236.324 207.806 236.283 207.773C236.22 207.723 236.209 207.641 236.257 207.589C238.675 205.001 238.757 202.176 238.758 202.147C238.759 202.076 238.824 202.026 238.903 202.035C238.981 202.044 239.044 202.109 239.043 202.18C239.042 202.209 238.961 205.116 236.483 207.769C236.467 207.786 236.446 207.798 236.424 207.804Z" fill="#DB7C5F"/>
<path d="M113.184 402.32C106.47 408.758 108.667 416.25 108.667 416.25C108.667 416.25 156.395 418.044 156.395 416.25C148.582 409.285 128.807 404.536 129.54 397.677C130.273 390.818 113.184 402.32 113.184 402.32Z" fill="#E2E1EB"/>
<path d="M145.164 414.646H109.643C109.521 414.646 109.423 414.561 109.423 414.456C109.423 414.352 109.521 414.266 109.643 414.266H143.982C134.861 411.184 129.985 408.331 129.485 405.781C129.297 404.824 129.74 403.948 130.803 403.177C130.896 403.111 131.035 403.12 131.112 403.201C131.19 403.281 131.178 403.401 131.085 403.468C130.151 404.146 129.758 404.903 129.918 405.718C130.256 407.442 133.189 410.328 145.242 414.279C145.342 414.311 145.4 414.4 145.38 414.491C145.361 414.581 145.27 414.646 145.164 414.646Z" fill="#100D2B"/>
<path d="M132.652 407.312C132.534 407.312 132.438 407.231 132.433 407.129C132.431 407.097 132.343 403.891 135.797 403.504C135.923 403.487 136.029 403.564 136.044 403.668C136.059 403.773 135.975 403.868 135.854 403.881C132.792 404.225 132.867 406.998 132.872 407.116C132.877 407.221 132.781 407.308 132.661 407.312C132.658 407.312 132.655 407.312 132.652 407.312Z" fill="#100D2B"/>
<path d="M137.504 409.528C137.386 409.528 137.29 409.447 137.285 409.345C137.283 409.313 137.195 406.107 140.649 405.72C140.775 405.703 140.881 405.779 140.896 405.884C140.911 405.988 140.827 406.083 140.706 406.097C137.644 406.44 137.719 409.214 137.724 409.332C137.729 409.437 137.633 409.524 137.513 409.528C137.51 409.528 137.507 409.528 137.504 409.528Z" fill="#100D2B"/>
<path d="M142.601 412.166C142.483 412.166 142.386 412.085 142.381 411.983C142.38 411.951 142.292 408.745 145.746 408.358C145.871 408.341 145.977 408.418 145.993 408.522C146.008 408.626 145.923 408.722 145.803 408.735C142.74 409.078 142.815 411.852 142.82 411.97C142.825 412.075 142.73 412.162 142.609 412.166C142.606 412.166 142.603 412.166 142.601 412.166Z" fill="#100D2B"/>
<path d="M122.594 285.892C121.13 302.513 124.608 344.462 122.594 345.57C120.581 346.678 122.045 347.627 120.58 349.685C119.115 351.743 118.017 353.01 117.284 356.493C116.552 359.975 109.777 397.175 108.679 402.24C107.58 407.306 106.664 411.105 110.327 409.68C113.989 408.256 118.566 401.607 124.792 403.032C131.017 404.456 134.679 406.198 134.679 403.349C134.679 400.499 134.313 399.708 134.13 396.858C133.946 394.009 150.974 332.748 150.974 332.748L148.777 283.992L122.594 285.892Z" fill="#100D2B"/>
<path d="M150.535 402.32C143.822 408.758 146.019 416.25 146.019 416.25C146.019 416.25 193.746 418.044 193.746 416.25C185.934 409.285 166.159 404.536 166.892 397.677C167.624 390.818 150.535 402.32 150.535 402.32Z" fill="white"/>
<path d="M182.516 414.646H146.995C146.873 414.646 146.775 414.561 146.775 414.456C146.775 414.352 146.873 414.266 146.995 414.266H181.334C172.213 411.184 167.337 408.331 166.837 405.781C166.649 404.824 167.092 403.948 168.155 403.177C168.248 403.111 168.388 403.12 168.464 403.201C168.542 403.281 168.53 403.401 168.437 403.468C167.503 404.146 167.11 404.903 167.27 405.718C167.608 407.442 170.541 410.328 182.594 414.279C182.694 414.311 182.752 414.4 182.732 414.491C182.713 414.581 182.622 414.646 182.516 414.646Z" fill="#19154A"/>
<path d="M170.004 407.312C169.886 407.312 169.79 407.231 169.785 407.129C169.783 407.097 169.695 403.891 173.149 403.504C173.275 403.487 173.381 403.564 173.396 403.668C173.411 403.773 173.327 403.868 173.206 403.881C170.144 404.225 170.219 406.998 170.224 407.116C170.229 407.221 170.133 407.308 170.013 407.312C170.01 407.312 170.007 407.312 170.004 407.312Z" fill="#19154A"/>
<path d="M174.856 409.528C174.739 409.528 174.642 409.447 174.637 409.345C174.636 409.313 174.547 406.107 178.001 405.72C178.127 405.703 178.233 405.779 178.248 405.884C178.263 405.988 178.179 406.083 178.059 406.097C174.996 406.44 175.071 409.214 175.076 409.332C175.081 409.437 174.985 409.524 174.865 409.528C174.862 409.528 174.859 409.528 174.856 409.528Z" fill="#19154A"/>
<path d="M179.953 412.166C179.835 412.166 179.738 412.085 179.734 411.983C179.732 411.951 179.644 408.745 183.098 408.358C183.224 408.341 183.33 408.418 183.345 408.522C183.36 408.626 183.275 408.722 183.155 408.735C180.093 409.078 180.168 411.852 180.173 411.97C180.177 412.075 180.082 412.162 179.961 412.166C179.959 412.166 179.955 412.166 179.953 412.166Z" fill="#19154A"/>
<path d="M139.439 282.726C139.439 282.726 147.495 345.728 147.129 348.578C146.763 351.427 147.495 351.11 146.397 353.96C145.298 356.809 144.566 368.523 144.566 380.871C144.566 393.218 142.369 411.58 145.298 411.58C148.228 411.58 149.692 406.831 154.453 405.248C159.214 403.665 168.003 404.615 168.369 401.133C168.735 397.65 169.834 347.628 173.496 339.08C177.158 330.531 178.988 285.575 178.988 285.575L139.439 282.726Z" fill="#19154A"/>
<path d="M146.671 207.693C145.207 208.089 143.834 208.88 143.834 208.88L137.12 210.12C127.08 211.492 111.334 216.32 110.693 222.81C110.693 222.81 147.129 286.842 148.228 287.158C163.608 291.59 182.285 291.274 183.383 286.525C184.482 281.776 184.726 248.323 184.726 248.323C187.655 250.011 201.937 255.921 208.04 254.127C214.144 252.333 231.843 229.854 232.575 219.301C228.425 214.025 223.176 214.025 222.81 214.236C219.759 216.347 201.937 234.498 201.937 234.498C193.392 230.382 193.758 228.588 184.237 219.407C176.048 211.51 174.961 210.964 171.299 210.648C167.636 210.331 164.951 210.437 164.951 210.437C163.974 209.487 161.045 207.799 161.045 207.799L146.671 207.693Z" fill="#282275"/>
<path d="M180.087 246.001C171.664 264.046 159.031 260.564 156.833 255.499V260.248C159.031 265.313 173.862 267.74 182.284 249.694L183.139 247.584L180.087 246.001Z" fill="#FFBF4A"/>
<path d="M157.628 226.056C157.628 220.463 159.703 213.181 171.299 210.648L164.952 210.437C151.769 215.08 151.769 224.684 151.769 224.684L157.628 226.056Z" fill="#FFBF4A"/>
<path d="M129.796 225.739C129.796 220.146 132.238 211.413 143.834 208.88L137.12 210.12C123.937 214.764 123.937 224.367 123.937 224.367L129.796 225.739Z" fill="#FFBF4A"/>
<path d="M168.14 191.269C169.01 193.06 172.031 194.752 171.939 195.346C171.848 195.939 168.506 198.472 168.506 198.472C168.506 198.472 167.271 198.076 167.271 196.691C167.271 195.306 167.454 192.872 168.14 191.269Z" fill="#FF8159"/>
<path d="M167.224 182.682C168.918 187.035 169.055 191.942 169.009 194.396C168.963 196.85 170.429 203.102 170.154 204.725C169.879 206.347 163.242 206.189 162.967 207.376C162.693 208.564 162.693 209.038 162.693 209.038C158.161 210.067 148.594 209.672 146.671 207.693C147.129 202.667 146.946 201.718 147.404 200.016C147.862 198.314 153.034 185.017 153.034 185.017L167.224 182.682Z" fill="#FF906E"/>
<path d="M144.108 198.274C145.207 199.936 144.2 201.519 145.116 201.203C146.214 202.627 145.665 205.477 147.038 203.894C148.411 202.311 151.616 205.081 153.538 201.044C155.826 200.49 157.108 198.987 156.559 197.325C156.01 195.662 156.193 194.079 158.207 193.921C160.221 193.763 159.397 195.741 161.136 195.108C162.876 194.475 161.503 190.913 161.503 189.885C161.503 188.856 144.108 198.274 144.108 198.274Z" fill="#452115"/>
<path d="M163.334 187.748C170.474 183.711 175.052 177.775 171.848 176.192C168.644 174.609 158.298 177.141 155.918 179.674C153.537 182.207 163.334 187.748 163.334 187.748Z" fill="#FF954A"/>
<path d="M105.079 289.058C102.618 289.058 100.623 287.333 100.623 285.206V227.771C100.623 223.385 104.735 219.829 109.808 219.829H149.572L146.642 289.058H105.079Z" fill="#FFAB4A"/>
<path d="M142.43 289.058H153.294C155.755 289.058 157.75 287.333 157.75 285.206V223.681C157.75 221.554 155.755 219.829 153.294 219.829H142.43C139.97 219.829 137.975 221.554 137.975 223.681V285.206C137.975 287.333 139.97 289.058 142.43 289.058Z" fill="#F58F47"/>
<path d="M98.3034 246.106C97.8991 246.106 97.5708 245.822 97.5708 245.473V228.43C97.5708 223.513 102.198 219.512 107.885 219.512H113.561H152.44C152.44 219.512 149.388 220.41 149.205 220.41C149.022 220.41 146.092 221.518 146.092 221.518L143.529 224.103L142.674 227.216L142.247 246.054L98.3034 246.106Z" fill="#FFBF4A"/>
<path d="M142.248 246.106C141.843 246.106 141.515 245.822 141.515 245.473V228.43C141.515 223.513 146.142 219.512 151.83 219.512H157.506C157.91 219.512 158.238 219.796 158.238 220.146C158.238 220.495 157.91 220.779 157.506 220.779H151.83C146.95 220.779 142.98 224.211 142.98 228.43V245.473C142.98 245.822 142.652 246.106 142.248 246.106Z" fill="#FFAB4A"/>
<path d="M129.308 244.312V254.971H126.989V244.312H129.308Z" fill="#E68643"/>
<path d="M128.576 244.312V254.971H126.256V244.312H128.576Z" fill="#F58F47"/>
<path d="M107.336 244.312V254.971H105.017V244.312H107.336Z" fill="#E68643"/>
<path d="M106.604 244.312V254.971H104.285V244.312H106.604Z" fill="#F58F47"/>
<path d="M165.439 186.694C161.213 194.891 150.169 199.053 144.108 198.274C134.588 187.748 143.01 181.02 148.32 178.567C152.755 176.517 160 176.069 164.401 180.45C166.12 182.162 166.507 184.623 165.439 186.694Z" fill="#FFBF4A"/>
<path d="M162.602 205.525C162.582 205.525 162.563 205.521 162.544 205.515C161.427 205.105 159.571 203.887 159.57 200.324C158.836 200.365 157.283 199.765 156.927 199.036C156.896 198.971 156.932 198.898 157.006 198.87C157.081 198.843 157.166 198.873 157.198 198.938C157.545 199.651 159.206 200.19 159.671 200.054C159.716 200.04 159.766 200.047 159.804 200.072C159.842 200.096 159.865 200.135 159.864 200.176C159.816 203.531 161.357 204.804 162.659 205.282C162.733 205.309 162.768 205.383 162.736 205.447C162.712 205.496 162.659 205.525 162.602 205.525Z" fill="#DB7C5F"/>
<path d="M158.993 195.357C158.447 195.038 157.793 195.037 157.151 195.354C157.08 195.389 157.056 195.466 157.096 195.527C157.136 195.588 157.225 195.608 157.296 195.574C157.843 195.303 158.374 195.301 158.829 195.566C159.101 195.726 159.329 195.975 159.504 196.276C158.948 196.232 158.492 196.384 158.245 196.729C157.853 197.274 158.04 198.128 158.72 198.904C158.749 198.937 158.792 198.955 158.837 198.955C158.868 198.955 158.899 198.947 158.925 198.929C158.99 198.887 159.003 198.807 158.953 198.752C158.357 198.07 158.172 197.311 158.494 196.862C158.705 196.569 159.107 196.455 159.633 196.537C159.856 197.046 159.946 197.662 159.848 198.277C159.837 198.346 159.893 198.41 159.973 198.419C159.979 198.42 159.987 198.421 159.993 198.421C160.065 198.421 160.127 198.374 160.138 198.311C160.334 197.081 159.864 195.865 158.993 195.357Z" fill="#DB7C5F"/>
<path d="M184.726 248.449C184.701 248.449 184.676 248.444 184.654 248.433L173.424 242.945C173.354 242.911 173.328 242.833 173.368 242.773C173.408 242.712 173.498 242.691 173.568 242.724L184.798 248.212C184.868 248.247 184.894 248.324 184.854 248.385C184.827 248.426 184.777 248.449 184.726 248.449Z" fill="#443D8F"/>
<path d="M165.317 226.71C165.255 226.71 165.198 226.675 165.178 226.621C163.447 221.902 165.278 214.914 171.338 211.387C171.405 211.348 171.496 211.363 171.542 211.421C171.587 211.479 171.569 211.558 171.502 211.597C164.949 215.41 164.023 222.634 165.457 226.545C165.482 226.611 165.439 226.682 165.362 226.704C165.347 226.708 165.332 226.71 165.317 226.71Z" fill="#443D8F"/>
</g>
<defs>
<clipPath id="clip0_142_2730">
<rect width="598" height="517" fill="white"/>
</clipPath>
</defs>
</svg>
